<?xml version="1.0" encoding="UTF-8"?><svg id="Layer_1" xmlns="http://www.w3.org/2000/svg" viewBox="0 0 892.47 892.47"><defs><style>.cls-1{fill:#1f78b8;}.cls-2{fill:#edf0f4;stroke:#fff;stroke-miterlimit:10;}</style></defs><circle class="cls-2" cx="446.24" cy="446.24" r="445.74"/><path class="cls-1" d="M818.52,612.03c.89,19.55-5.66,38.7-18.33,53.6l-114.14,125.59-113.72-125.17h0c-12.95-15.18-19.59-34.75-18.55-54.68,.06-19.62,7.65-38.46,21.2-52.65,13.01-13.99,31.23-21.98,50.34-22.07,15.82,.48,30.68,7.72,40.8,19.9,5.17,5.54,12.4,8.69,19.98,8.69s14.81-3.15,19.98-8.69c10.13-12.17,24.98-19.42,40.8-19.9,19.11,.09,37.32,8.08,50.34,22.07,13.71,14.36,21.34,33.46,21.3,53.31h0Zm-281.52-90.24c-23.02,23.66-36.06,55.26-36.43,88.26-1.24,32.02,9.38,63.38,29.81,88.07H204.34c-41.89,0-74.72-40.72-74.72-92.73V207.95c0-51.99,32.83-92.73,74.72-92.73h433.47c41.89,0,74.72,40.75,74.72,92.73V489.88c-9.42,3.32-18.34,7.93-26.5,13.7-17.35-12.4-38.01-19.33-59.33-19.9-33.94-.5-66.51,13.33-89.71,38.1h0Zm1.91-91.4c5.8-3.03,10.29-8.08,12.61-14.2,2.33-6.12,2.33-12.88,0-19-2.32-6.12-6.81-11.17-12.61-14.2l-211.96-105.98c-8.21-4.1-17.96-3.67-25.77,1.16-7.81,4.83-12.56,13.35-12.57,22.53v211.96c-.05,9.2,4.68,17.78,12.5,22.64,7.82,4.87,17.6,5.32,25.84,1.21l211.96-106.12Zm-197.31,39.4l126.23-63.11-126.23-63.09v126.2Z"/></svg>